<svg xmlns="http://www.w3.org/2000/svg" fill="none" viewBox="0 0 52 52">
  <path fill="#000" d="M26 0c14.36 0 26 11.64 26 26S40.36 52 26 52 0 40.36 0 26 11.64 0 26 0Zm0 7a19 19 0 1 0 19 19A19.02 19.02 0 0 0 26 7Zm-3.137 3.232A16.078 16.078 0 0 1 42.077 26 16.094 16.094 0 0 1 26 42.077a16.077 16.077 0 0 1-3.137-31.845Zm14.83 14.306A1.462 1.462 0 0 0 36.23 26 10.242 10.242 0 0 1 26 36.23a1.462 1.462 0 0 0 0 2.924A13.169 13.169 0 0 0 39.154 26a1.462 1.462 0 0 0-1.462-1.462Zm-9.456-3.94a5.847 5.847 0 1 0-4.472 10.805A5.847 5.847 0 0 0 28.237 20.6ZM24.882 23.3a2.923 2.923 0 1 1 2.239 5.4 2.923 2.923 0 0 1-2.24-5.4ZM26 12.846A13.169 13.169 0 0 0 12.846 26a1.462 1.462 0 0 0 2.924 0A10.242 10.242 0 0 1 26 15.77a1.462 1.462 0 0 0 0-2.924Z"/>
</svg>